# xmcd
#
# Track frame offsets: 
#        150
#        11648
#        22894
#        34898
#        45429
#        56762
#        69721
#        82245
#        95666
#        104026
#        117924
#        130198
#        142204
#        156359
#        169118
#        182001
#        193450
#        206560
#        221327
#        232592
#        243453
#        256402
#        269373
#        283149
#        293667
#        302469
#        313668
#        327226
#        339394
#        350969
#        358053
#
# Disc length: 4958 seconds
#
# Revision: 1
# Processed by: cddbd v1.5.2PL0 Copyright (c) Steve Scherf et al.
# Submitted via: ExactAudioCopyFreeDBPlugin 1.0
#
DISCID=e8135c1f
DTITLE=Amos Milburn - Amos Milburn Rocks
DYEAR=2009
DGENRE=R&B
TTITLE0=Chicken Shack Boogie (1956 version)
TTITLE1=House Party (Tonight)
TTITLE2=Rock Rock Rock
TTITLE3=Soft Pillow
TTITLE4=My Baby's Boogying
TTITLE5=I'm Gonna Tell My Mama
TTITLE6=Roomin' House Boogie
TTITLE7=Bad, Bad Whiskey
TTITLE8=We Teenagers Know What We Want
TTITLE9=Down The Road Apiece
TTITLE10=Roll Mr. Jelly
TTITLE11=Johnson Rag
TTITLE12=Greyhound
TTITLE13=Let Me Go Home, Whiskey
TTITLE14=Chicken Shack Boogie (1948 version)
TTITLE15=Let's Have A Party
TTITLE16=Square Dance Boogie
TTITLE17=One Scotch, One Bourbon, One Beer
TTITLE18=One, Two, Three, Everybody
TTITLE19=Amos' Boogie
TTITLE20=Boogie Woogie
TTITLE21=Sax Shack Boogie
TTITLE22=Good, Good Whiskey
TTITLE23=Every Day Of The Week
TTITLE24=Juice Juice Juice
TTITLE25=Amos' Blues
TTITLE26=Vicious, Vicious Vodka
TTITLE27=Let's Rock A While
TTITLE28=Three Times A Fool
TTITLE29=Girl Of My Dreams
TTITLE30=Birmingham Bounce
EXTD=
EXTT0=
EXTT1=
EXTT2=
EXTT3=
EXTT4=
EXTT5=
EXTT6=
EXTT7=
EXTT8=
EXTT9=
EXTT10=
EXTT11=
EXTT12=
EXTT13=
EXTT14=
EXTT15=
EXTT16=
EXTT17=
EXTT18=
EXTT19=
EXTT20=
EXTT21=
EXTT22=
EXTT23=
EXTT24=
EXTT25=
EXTT26=
EXTT27=
EXTT28=
EXTT29=
EXTT30=
PLAYORDER=
